# xmcd CD database file
#
# Track frame offsets:
#	150
#	13767
#	26425
#	40676
#	52641
#	66893
#	79941
#	93028
#	105366
#	119111
#	131318
#	143678
#	155909
#	169103
#	181393
#	193362
#
# Disc length: 2772 seconds
#
# Revision: 0
# Processed by: cddbd v1.5.1PL0 Copyright (c) Steve Scherf et al.
# Submitted via: CDex 1.50
#
DISCID=cf0ad210
DTITLE=T-Bone Walker - Call It Stormy Monday
DYEAR=2004
DGENRE=Blues
TTITLE0=Call it stormy monday
TTITLE1=Don't leave me baby
TTITLE2=She had to let me down
TTITLE3=Dream girl blues
TTITLE4=Goodbye blues
TTITLE5=Mean old world
TTITLE6=Long lost lover blues
TTITLE7=I know your wig is gone
TTITLE8=Don't give me the runaround
TTITLE9=T-Bone jumps again
TTITLE10=I'm in an awful mood
TTITLE11=No worry blues
TTITLE12=I'm gonna find my baby
TTITLE13=Too much trouble blues
TTITLE14=Bobby Sox baby
TTITLE15=I got a break baby
EXTD=YEAR: 2004
EXTT0=
EXTT1=
EXTT2=
EXTT3=
EXTT4=
EXTT5=
EXTT6=
EXTT7=
EXTT8=
EXTT9=
EXTT10=
EXTT11=
EXTT12=
EXTT13=
EXTT14=
EXTT15=
PLAYORDER=
